<svg width="260" height="240" viewBox="0 0 260 240" fill="none" xmlns="http://www.w3.org/2000/svg">
<path d="M60.6027 225.515C46.0145 209.243 77.2747 40.264 60.6027 60.7084C43.9306 81.1529 31.0098 94.087 31.0098 94.087C31.0098 94.087 22.674 72.391 9.33611 75.7288C-4.00176 79.0667 2.66729 60.7084 2.66729 60.7084C2.66729 60.7084 28.9413 7.90051 60.6027 1.87863C70.9969 -0.0982934 87.6948 1.87863 87.6948 1.87863C87.6948 1.87863 110.159 37.5513 132.292 36.9262C153.667 36.3225 174.389 1.87863 174.389 1.87863C174.389 1.87863 188.989 0.390723 198.147 1.87863C230.758 7.17692 259 60.7084 259 60.7084C259 60.7084 245.662 60.7084 245.246 85.3252C244.829 109.942 223.572 94.087 223.572 94.087C223.572 94.087 206.9 78.6495 198.147 60.7084C189.394 42.7674 217.32 205.905 198.147 225.515C178.974 245.125 75.1909 241.787 60.6027 225.515Z" stroke="black"/>
</svg>
