<svg width="280" height="259" viewBox="0 0 280 259" fill="none" xmlns="http://www.w3.org/2000/svg">
<path d="M52.2241 44.4363C44.1908 35.3474 46.5 22 41.0259 7.64219C36.7971 -3.44907 20.308 0.768555 10.6307 7.64219L10.602 7.66254C5.52177 11.2709 1.37812 14.2141 1.03223 20.4401C0.722268 26.0194 2.63291 31.6385 7.43121 33.2381C12.2295 34.8377 4.80306 15.6409 24 20.4401C43.1969 25.2394 71.4201 124.423 69.8203 140.421C68.2206 156.418 55.3649 155.705 52.2241 169.216C50.3851 177.127 49.2158 182.469 52.2241 190.013C56.5285 200.807 66.6228 204.411 76.2203 207.61C85.8177 210.81 221.797 209.21 229.796 207.61C237.794 206.011 240.994 201.211 240.994 193.213C240.994 185.214 239.394 185.214 229.796 180.415C220.197 175.615 48.1029 231.234 69.8203 176C74.4492 164.227 83.439 149.151 95.4172 153.219C175.5 180.415 221 169.216 199.401 153.219C193.11 148.56 209.408 141.704 216.998 143.621C255 153.219 300.15 74.0764 268.19 44.4363C262.217 38.8974 257.688 37.2384 250.592 33.2381C185.287 -3.57856 101.872 100.609 52.2241 44.4363Z" stroke="black"/>
<path d="M110.5 239C110.5 249.782 101.982 258.5 91.5 258.5C81.0184 258.5 72.5 249.782 72.5 239C72.5 228.218 81.0184 219.5 91.5 219.5C101.982 219.5 110.5 228.218 110.5 239Z" stroke="black"/>
<path d="M232.5 239C232.5 249.782 223.982 258.5 213.5 258.5C203.018 258.5 194.5 249.782 194.5 239C194.5 228.218 203.018 219.5 213.5 219.5C223.982 219.5 232.5 228.218 232.5 239Z" stroke="black"/>
</svg>
